<svg width="36" height="53" viewBox="0 0 36 53" fill="none" xmlns="http://www.w3.org/2000/svg">
<path d="M34.6781 36.921L34.3238 36.5682L34.6781 36.921C35.774 35.8206 35.774 34.0374 34.6781 32.937C33.5812 31.8354 31.8018 31.8354 30.7048 32.937L20.8085 42.8746L20.8085 3.31818C20.8085 1.76371 19.5531 0.499999 18 0.499999C16.4469 0.499999 15.1915 1.76371 15.1915 3.31818L15.1915 42.8746L5.29522 32.937C4.19824 31.8354 2.41884 31.8354 1.32187 32.937C0.226046 34.0374 0.22605 35.8206 1.32187 36.921L16.0133 51.6738C17.1103 52.7754 18.8897 52.7754 19.9867 51.6738L34.6781 36.921Z" fill="white" stroke="white"/>
</svg>
