<svg width="1944" height="5199" viewBox="0 0 1944 5199" fill="none" xmlns="http://www.w3.org/2000/svg">
<path fill-rule="evenodd" clip-rule="evenodd" d="M0 0H1936L1944 5017.5H1936V5074.5H1874V5136.5H1812V5074.5H1626V5136.5H1688V5198.5H1626V5136.5H1502V5074.5H1440V5136.5H1378V5074.5H1316V5017.5H1254V5074.5H1130V5136.5H1068V5074.5H1006V5136.5H944V5198.5H882V5074.5H696V5017.5H634V5136.5H572V5074.5H510V5017.5H448V5074.5H324V5136.5H262V5074.5H200V5136.5H138V5198.5H76V5136.5H138V5074.5H200V5017.5H78V5074.5H16V5017.5H8L0 0ZM882 5074.5H944V5017.5H882V5074.5ZM1626 5074.5V5017.5H1564V5074.5H1626ZM1812 5074.5H1874V5017.5H1812V5074.5Z" fill="black"/>
</svg>
