<svg width="1936" height="263" viewBox="0 0 1936 263" fill="none" xmlns="http://www.w3.org/2000/svg">
    <path fill-rule="evenodd" clip-rule="evenodd" d="M0 0H1936V81.5H1928V138.5H1866V200.5H1804V138.5H1618V200.5H1680V262.5H1618V200.5H1494V138.5H1432V200.5H1370V138.5H1308V81.5H1246V138.5H1122V200.5H1060V138.5H998V200.5H936V262.5H874V138.5H688V81.5H626V200.5H564V138.5H502V81.5H440V138.5H316V200.5H254V138.5H192V200.5H130V262.5H68V200.5H130V138.5H192V81.5H70V138.5H8V81.5H0V0ZM874 138.5H936V81.5H874V138.5ZM1618 138.5V81.5H1556V138.5H1618ZM1804 138.5H1866V81.5H1804V138.5Z" fill="black"/>
</svg>
